<mxfile host="65bd71144e">
    <diagram id="KUNHaDDwhek79f5nzbnP" name="Page-1">
        <mxGraphModel dx="1626" dy="571" grid="1" gridSize="10" guides="1" tooltips="1" connect="1" arrows="1" fold="1" page="1" pageScale="1" pageWidth="850" pageHeight="1100" math="0" shadow="0">
            <root>
                <mxCell id="0"/>
                <mxCell id="1" parent="0"/>
                <mxCell id="2" value="Nhân Viên" style="shape=umlActor;html=1;verticalLabelPosition=bottom;verticalAlign=top;align=center;fillColor=#ffe6cc;strokeColor=#d79b00;" vertex="1" parent="1">
                    <mxGeometry x="130" y="180" width="30" height="60" as="geometry"/>
                </mxCell>
                <mxCell id="3" value="Xem Đơn của mình" style="ellipse;whiteSpace=wrap;html=1;fillColor=#ffe6cc;strokeColor=#d79b00;" vertex="1" parent="1">
                    <mxGeometry x="220" y="130" width="70" height="50" as="geometry"/>
                </mxCell>
                <mxCell id="4" value="" style="edgeStyle=none;html=1;endArrow=none;verticalAlign=bottom;rounded=0;fillColor=#ffe6cc;strokeColor=#d79b00;" edge="1" parent="1" source="2" target="3">
                    <mxGeometry width="160" relative="1" as="geometry">
                        <mxPoint x="350" y="290" as="sourcePoint"/>
                        <mxPoint x="510" y="290" as="targetPoint"/>
                    </mxGeometry>
                </mxCell>
                <mxCell id="5" value="Tạo Đơn Xin Phép" style="ellipse;whiteSpace=wrap;html=1;fillColor=#ffe6cc;strokeColor=#d79b00;" vertex="1" parent="1">
                    <mxGeometry x="215" y="200" width="80" height="60" as="geometry"/>
                </mxCell>
                <mxCell id="6" value="" style="edgeStyle=none;html=1;endArrow=none;verticalAlign=bottom;rounded=0;entryX=0;entryY=0.5;entryDx=0;entryDy=0;fillColor=#ffe6cc;strokeColor=#d79b00;" edge="1" parent="1" source="2" target="5">
                    <mxGeometry width="160" relative="1" as="geometry">
                        <mxPoint x="350" y="290" as="sourcePoint"/>
                        <mxPoint x="510" y="290" as="targetPoint"/>
                    </mxGeometry>
                </mxCell>
                <mxCell id="7" value="Trưởng nhóm" style="shape=umlActor;html=1;verticalLabelPosition=bottom;verticalAlign=top;align=center;fillColor=#ffe6cc;strokeColor=#d79b00;" vertex="1" parent="1">
                    <mxGeometry x="130" y="320" width="30" height="60" as="geometry"/>
                </mxCell>
                <mxCell id="8" value="" style="edgeStyle=none;html=1;endArrow=block;endFill=0;endSize=12;verticalAlign=bottom;rounded=0;fillColor=#ffe6cc;strokeColor=#d79b00;" edge="1" parent="1" source="7" target="2">
                    <mxGeometry width="160" relative="1" as="geometry">
                        <mxPoint x="350" y="290" as="sourcePoint"/>
                        <mxPoint x="510" y="290" as="targetPoint"/>
                    </mxGeometry>
                </mxCell>
                <mxCell id="9" value="xét duyệt đơn xin nghỉ của cấp dưới" style="ellipse;whiteSpace=wrap;html=1;fillColor=#ffe6cc;strokeColor=#d79b00;" vertex="1" parent="1">
                    <mxGeometry x="210" y="290" width="90" height="60" as="geometry"/>
                </mxCell>
                <mxCell id="10" value="" style="edgeStyle=none;html=1;endArrow=none;verticalAlign=bottom;rounded=0;fillColor=#ffe6cc;strokeColor=#d79b00;" edge="1" parent="1" source="7" target="9">
                    <mxGeometry width="160" relative="1" as="geometry">
                        <mxPoint x="350" y="290" as="sourcePoint"/>
                        <mxPoint x="510" y="290" as="targetPoint"/>
                    </mxGeometry>
                </mxCell>
                <mxCell id="11" value="Xem các đơn tạo của cấp dưới" style="ellipse;whiteSpace=wrap;html=1;fillColor=#ffe6cc;strokeColor=#d79b00;" vertex="1" parent="1">
                    <mxGeometry x="210" y="360" width="100" height="70" as="geometry"/>
                </mxCell>
                <mxCell id="12" value="" style="edgeStyle=none;html=1;endArrow=none;verticalAlign=bottom;rounded=0;fillColor=#ffe6cc;strokeColor=#d79b00;" edge="1" parent="1" source="7" target="11">
                    <mxGeometry width="160" relative="1" as="geometry">
                        <mxPoint x="350" y="290" as="sourcePoint"/>
                        <mxPoint x="510" y="290" as="targetPoint"/>
                    </mxGeometry>
                </mxCell>
                <mxCell id="13" value="Trưởng Phòng" style="shape=umlActor;html=1;verticalLabelPosition=bottom;verticalAlign=top;align=center;fillColor=#ffe6cc;strokeColor=#d79b00;" vertex="1" parent="1">
                    <mxGeometry x="130" y="480" width="30" height="60" as="geometry"/>
                </mxCell>
                <mxCell id="14" value="" style="edgeStyle=none;html=1;endArrow=block;endFill=0;endSize=12;verticalAlign=bottom;rounded=0;fillColor=#ffe6cc;strokeColor=#d79b00;" edge="1" parent="1" source="13" target="7">
                    <mxGeometry width="160" relative="1" as="geometry">
                        <mxPoint x="350" y="390" as="sourcePoint"/>
                        <mxPoint x="510" y="390" as="targetPoint"/>
                    </mxGeometry>
                </mxCell>
                <mxCell id="15" value="Xem agenda Tình hình Lao Động của phòng ban" style="ellipse;whiteSpace=wrap;html=1;fillColor=#ffe6cc;strokeColor=#d79b00;" vertex="1" parent="1">
                    <mxGeometry x="220" y="460" width="100" height="70" as="geometry"/>
                </mxCell>
                <mxCell id="16" value="" style="edgeStyle=none;html=1;endArrow=none;verticalAlign=bottom;rounded=0;fillColor=#ffe6cc;strokeColor=#d79b00;" edge="1" parent="1" source="13" target="15">
                    <mxGeometry width="160" relative="1" as="geometry">
                        <mxPoint x="350" y="490" as="sourcePoint"/>
                        <mxPoint x="510" y="490" as="targetPoint"/>
                    </mxGeometry>
                </mxCell>
                <mxCell id="17" value="Giám Đốc" style="shape=umlActor;html=1;verticalLabelPosition=bottom;verticalAlign=top;align=center;fillColor=#ffe6cc;strokeColor=#d79b00;" vertex="1" parent="1">
                    <mxGeometry x="130" y="590" width="30" height="60" as="geometry"/>
                </mxCell>
                <mxCell id="18" value="Xem agenda Tình hình Lao Động của cả công ty" style="ellipse;whiteSpace=wrap;html=1;fillColor=#ffe6cc;strokeColor=#d79b00;" vertex="1" parent="1">
                    <mxGeometry x="210" y="580" width="130" height="80" as="geometry"/>
                </mxCell>
                <mxCell id="19" value="" style="edgeStyle=none;html=1;endArrow=none;verticalAlign=bottom;rounded=0;fillColor=#ffe6cc;strokeColor=#d79b00;" edge="1" parent="1" source="17" target="18">
                    <mxGeometry width="160" relative="1" as="geometry">
                        <mxPoint x="350" y="690" as="sourcePoint"/>
                        <mxPoint x="510" y="690" as="targetPoint"/>
                    </mxGeometry>
                </mxCell>
                <mxCell id="20" value="" style="edgeStyle=none;html=1;endArrow=block;endFill=0;endSize=12;verticalAlign=bottom;rounded=0;fillColor=#ffe6cc;strokeColor=#d79b00;" edge="1" parent="1" source="17" target="13">
                    <mxGeometry width="160" relative="1" as="geometry">
                        <mxPoint x="350" y="690" as="sourcePoint"/>
                        <mxPoint x="510" y="690" as="targetPoint"/>
                    </mxGeometry>
                </mxCell>
                <mxCell id="21" value="admin" style="shape=umlActor;html=1;verticalLabelPosition=bottom;verticalAlign=top;align=center;" vertex="1" parent="1">
                    <mxGeometry x="616" y="240" width="30" height="60" as="geometry"/>
                </mxCell>
                <mxCell id="22" value="Quản Lý tài Khoản" style="ellipse;whiteSpace=wrap;html=1;" vertex="1" parent="1">
                    <mxGeometry x="506" y="150" width="80" height="50" as="geometry"/>
                </mxCell>
                <mxCell id="23" value="Thêm Tài Khoản" style="ellipse;whiteSpace=wrap;html=1;" vertex="1" parent="1">
                    <mxGeometry x="386" y="80" width="84" height="50" as="geometry"/>
                </mxCell>
                <mxCell id="24" value="chỉnh sửa tài Khoản" style="ellipse;whiteSpace=wrap;html=1;" vertex="1" parent="1">
                    <mxGeometry x="350" y="150" width="84" height="50" as="geometry"/>
                </mxCell>
                <mxCell id="25" value="khóa/ xóa tài khoản" style="ellipse;whiteSpace=wrap;html=1;" vertex="1" parent="1">
                    <mxGeometry x="366" y="210" width="84" height="50" as="geometry"/>
                </mxCell>
                <mxCell id="26" value="phân quyền" style="ellipse;whiteSpace=wrap;html=1;" vertex="1" parent="1">
                    <mxGeometry x="406" y="270" width="84" height="50" as="geometry"/>
                </mxCell>
                <mxCell id="27" value="" style="edgeStyle=none;html=1;endArrow=none;verticalAlign=bottom;rounded=0;" edge="1" parent="1" source="22" target="21">
                    <mxGeometry width="160" relative="1" as="geometry">
                        <mxPoint x="306" y="280" as="sourcePoint"/>
                        <mxPoint x="546" y="290" as="targetPoint"/>
                    </mxGeometry>
                </mxCell>
                <mxCell id="28" value="&amp;lt;&amp;lt;include&amp;gt;&amp;gt;" style="edgeStyle=none;html=1;endArrow=open;verticalAlign=bottom;dashed=1;labelBackgroundColor=none;rounded=0;exitX=0.091;exitY=0.325;exitDx=0;exitDy=0;exitPerimeter=0;" edge="1" parent="1" source="22" target="23">
                    <mxGeometry width="160" relative="1" as="geometry">
                        <mxPoint x="306" y="210" as="sourcePoint"/>
                        <mxPoint x="466" y="210" as="targetPoint"/>
                    </mxGeometry>
                </mxCell>
                <mxCell id="29" value="&amp;lt;&amp;lt;include&amp;gt;&amp;gt;" style="edgeStyle=none;html=1;endArrow=open;verticalAlign=bottom;dashed=1;labelBackgroundColor=none;rounded=0;" edge="1" parent="1" source="22" target="24">
                    <mxGeometry width="160" relative="1" as="geometry">
                        <mxPoint x="306" y="210" as="sourcePoint"/>
                        <mxPoint x="466" y="210" as="targetPoint"/>
                    </mxGeometry>
                </mxCell>
                <mxCell id="30" value="&amp;lt;&amp;lt;include&amp;gt;&amp;gt;" style="edgeStyle=none;html=1;endArrow=open;verticalAlign=bottom;dashed=1;labelBackgroundColor=none;rounded=0;" edge="1" parent="1" source="22" target="25">
                    <mxGeometry width="160" relative="1" as="geometry">
                        <mxPoint x="306" y="210" as="sourcePoint"/>
                        <mxPoint x="466" y="210" as="targetPoint"/>
                    </mxGeometry>
                </mxCell>
                <mxCell id="31" value="&amp;lt;&amp;lt;include&amp;gt;&amp;gt;" style="edgeStyle=none;html=1;endArrow=open;verticalAlign=bottom;dashed=1;labelBackgroundColor=none;rounded=0;" edge="1" parent="1" source="22" target="26">
                    <mxGeometry width="160" relative="1" as="geometry">
                        <mxPoint x="306" y="210" as="sourcePoint"/>
                        <mxPoint x="466" y="210" as="targetPoint"/>
                    </mxGeometry>
                </mxCell>
                <mxCell id="32" value="Quản Lý phòng ban" style="ellipse;whiteSpace=wrap;html=1;" vertex="1" parent="1">
                    <mxGeometry x="506" y="340" width="80" height="60" as="geometry"/>
                </mxCell>
                <mxCell id="33" value="Login" style="ellipse;whiteSpace=wrap;html=1;fillColor=#ffe6cc;strokeColor=#d79b00;" vertex="1" parent="1">
                    <mxGeometry x="190" y="70" width="120" height="40" as="geometry"/>
                </mxCell>
                <mxCell id="34" value="" style="edgeStyle=none;html=1;endArrow=none;verticalAlign=bottom;rounded=0;fillColor=#ffe6cc;strokeColor=#d79b00;" edge="1" parent="1" source="33" target="2">
                    <mxGeometry width="160" relative="1" as="geometry">
                        <mxPoint x="390" y="60" as="sourcePoint"/>
                        <mxPoint x="550" y="60" as="targetPoint"/>
                    </mxGeometry>
                </mxCell>
                <mxCell id="35" value="Thêm , chỉnh sửa, xóa phòng ban" style="ellipse;whiteSpace=wrap;html=1;" vertex="1" parent="1">
                    <mxGeometry x="356" y="330" width="104" height="70" as="geometry"/>
                </mxCell>
                <mxCell id="36" value="" style="edgeStyle=none;html=1;endArrow=none;verticalAlign=bottom;rounded=0;" edge="1" parent="1" source="32" target="21">
                    <mxGeometry width="160" relative="1" as="geometry">
                        <mxPoint x="306" y="360" as="sourcePoint"/>
                        <mxPoint x="466" y="360" as="targetPoint"/>
                    </mxGeometry>
                </mxCell>
                <mxCell id="37" value="Thêm, xóa Người trong Phòng ban" style="ellipse;whiteSpace=wrap;html=1;" vertex="1" parent="1">
                    <mxGeometry x="370" y="410" width="100" height="60" as="geometry"/>
                </mxCell>
                <mxCell id="38" value="&amp;lt;&amp;lt;include&amp;gt;&amp;gt;" style="edgeStyle=none;html=1;endArrow=open;verticalAlign=bottom;dashed=1;labelBackgroundColor=none;rounded=0;" edge="1" parent="1" source="32" target="35">
                    <mxGeometry width="160" relative="1" as="geometry">
                        <mxPoint x="136" y="350" as="sourcePoint"/>
                        <mxPoint x="296" y="350" as="targetPoint"/>
                    </mxGeometry>
                </mxCell>
                <mxCell id="39" value="&amp;lt;&amp;lt;include&amp;gt;&amp;gt;" style="edgeStyle=none;html=1;endArrow=open;verticalAlign=bottom;dashed=1;labelBackgroundColor=none;rounded=0;" edge="1" parent="1" source="32" target="37">
                    <mxGeometry width="160" relative="1" as="geometry">
                        <mxPoint x="434" y="460" as="sourcePoint"/>
                        <mxPoint x="594" y="460" as="targetPoint"/>
                    </mxGeometry>
                </mxCell>
                <mxCell id="40" value="các dự án tham gia" style="ellipse;whiteSpace=wrap;html=1;" vertex="1" parent="1">
                    <mxGeometry x="-90" y="70" width="140" height="70" as="geometry"/>
                </mxCell>
                <mxCell id="41" value="" style="edgeStyle=none;html=1;endArrow=none;verticalAlign=bottom;rounded=0;" edge="1" parent="1" source="2" target="40">
                    <mxGeometry width="160" relative="1" as="geometry">
                        <mxPoint x="200" y="190" as="sourcePoint"/>
                        <mxPoint x="360" y="190" as="targetPoint"/>
                    </mxGeometry>
                </mxCell>
                <mxCell id="43" value="thay đổi mật khẩu" style="ellipse;whiteSpace=wrap;html=1;" vertex="1" parent="1">
                    <mxGeometry x="400" y="20" width="84" height="50" as="geometry"/>
                </mxCell>
                <mxCell id="44" value="&amp;lt;&amp;lt;include&amp;gt;&amp;gt;" style="edgeStyle=none;html=1;endArrow=open;verticalAlign=bottom;dashed=1;labelBackgroundColor=none;" edge="1" parent="1" source="22" target="43">
                    <mxGeometry width="160" relative="1" as="geometry">
                        <mxPoint x="110" y="290" as="sourcePoint"/>
                        <mxPoint x="270" y="290" as="targetPoint"/>
                    </mxGeometry>
                </mxCell>
            </root>
        </mxGraphModel>
    </diagram>
</mxfile>